<svg width="32" height="32" viewBox="0 0 32 32" fill="none" xmlns="http://www.w3.org/2000/svg">
<path fill-rule="evenodd" clip-rule="evenodd" d="M19.2428 16.1549H20.9435C22.1495 16.1549 23.1271 15.1773 23.1271 13.9713V13.9713C23.1275 13.392 22.8976 12.8362 22.488 12.4265C22.0785 12.0167 21.5229 11.7864 20.9435 11.7864H20.2139V11.0648C20.2139 9.8581 19.2357 8.87988 18.029 8.87988V8.87988C16.823 8.87988 15.8454 9.8575 15.8454 11.0635V12.7575C15.8445 13.0077 15.7448 13.2474 15.568 13.4244L13.0096 15.9868C12.8324 16.1634 12.5928 16.2631 12.3426 16.2643H10.6379C9.43197 16.2643 8.45435 17.2419 8.45435 18.4479V18.4479C8.45399 19.0272 8.68389 19.583 9.09343 19.9928C9.50297 20.4025 10.0586 20.6328 10.6379 20.6328H11.3676V21.3611C11.3676 22.5678 12.3458 23.546 13.5525 23.546V23.546C14.7574 23.5445 15.7334 22.5673 15.7334 21.3624V19.6617C15.7343 19.4115 15.834 19.1718 16.0108 18.9948L18.5692 16.4364C18.7474 16.2567 18.9898 16.1554 19.2428 16.1549Z" stroke="#FF9900" stroke-width="1.5" stroke-linecap="round" stroke-linejoin="round"/>
<circle cx="16.0001" cy="16.0001" r="12.005" stroke="#FF9900" stroke-width="1.5" stroke-linecap="round" stroke-linejoin="round"/>
</svg>
