<svg width="32" height="32" viewBox="0 0 32 32" fill="none" xmlns="http://www.w3.org/2000/svg">
<path d="M26.6713 14.1606V26.6712" stroke="#FF9900" strokeWidth="1.5" strokeLinecap="round" strokeLinejoin="round"/>
<path d="M6.6628 26.6713H2.66113" stroke="#FF9900" strokeWidth="1.5" strokeLinecap="round" strokeLinejoin="round"/>
<path fillRule="evenodd" clipRule="evenodd" d="M16.0002 22.6697V22.6697C18.2103 22.6697 20.0019 24.4613 20.0019 26.6713V26.6713C20.0019 27.408 19.4047 28.0052 18.668 28.0052H13.3324C12.5957 28.0052 11.9985 27.408 11.9985 26.6713V26.6713C11.9985 24.4613 13.7901 22.6697 16.0002 22.6697Z" stroke="#FF9900" strokeWidth="1.5" strokeLinecap="round" strokeLinejoin="round"/>
<path d="M5.32905 14.158V26.6712" stroke="#FF9900" strokeWidth="1.5" strokeLinecap="round" strokeLinejoin="round"/>
<path d="M25.0039 14.6662V14.6662C26.6614 14.6662 28.0051 13.3225 28.0051 11.665V11.4956C28.0051 10.9518 27.8572 10.4183 27.577 9.95226L24.7758 5.29032C24.2946 4.4884 23.4287 3.99698 22.4935 3.99512H9.50678C8.57028 3.99512 7.70236 4.48616 7.22004 5.2889L4.41799 9.95226C4.1396 10.4188 3.99343 10.9523 3.99513 11.4956V11.665C3.99513 13.3225 5.33885 14.6662 6.9964 14.6662V14.6662" stroke="#FF9900" strokeWidth="1.5" strokeLinecap="round" strokeLinejoin="round"/>
<path d="M29.3391 26.6713H25.3374" stroke="#FF9900" strokeWidth="1.5" strokeLinecap="round" strokeLinejoin="round"/>
<path d="M25.0038 14.6662C23.6757 14.6662 22.5054 13.7935 22.1263 12.5206C22.1139 12.4622 22.0623 12.4204 22.0026 12.4204C21.9429 12.4204 21.8913 12.4622 21.8789 12.5206C21.4999 13.7936 20.3295 14.6662 19.0013 14.6662C17.6732 14.6662 16.5028 13.7936 16.1238 12.5206C16.1114 12.4622 16.0598 12.4204 16.0001 12.4204C15.9404 12.4204 15.8888 12.4622 15.8764 12.5206C15.4974 13.7936 14.327 14.6662 12.9988 14.6662C11.6707 14.6662 10.5003 13.7936 10.1213 12.5206C10.1089 12.4622 10.0573 12.4204 9.99759 12.4204C9.93786 12.4204 9.88628 12.4622 9.87387 12.5206C9.49481 13.7935 8.3245 14.6662 6.99634 14.6662" stroke="#FF9900" strokeWidth="1.5" strokeLinecap="round" strokeLinejoin="round"/>
<path d="M16.3339 18.6683C16.3337 18.8524 16.1844 19.0015 16.0003 19.0014C15.8162 19.0013 15.667 18.8521 15.667 18.6681C15.6669 18.484 15.816 18.3347 16 18.3344C16.0886 18.3343 16.1736 18.3695 16.2362 18.4321C16.2989 18.4948 16.334 18.5797 16.3339 18.6683" stroke="#FF9900" strokeWidth="1.5" strokeLinecap="round" strokeLinejoin="round"/>
<path d="M20.3356 20.0023C20.3354 20.1864 20.1861 20.3355 20.002 20.3354C19.8179 20.3353 19.6688 20.1861 19.6687 20.002C19.6686 19.818 19.8177 19.6687 20.0017 19.6684C20.0903 19.6683 20.1753 19.7035 20.2379 19.7661C20.3006 19.8287 20.3357 19.9137 20.3356 20.0023" stroke="#FF9900" strokeWidth="1.5" strokeLinecap="round" strokeLinejoin="round"/>
<path d="M12.3324 20.0023C12.3322 20.1864 12.1829 20.3355 11.9988 20.3354C11.8148 20.3353 11.6656 20.1861 11.6655 20.002C11.6654 19.818 11.8145 19.6687 11.9985 19.6684C12.0871 19.6683 12.1721 19.7035 12.2348 19.7661C12.2974 19.8287 12.3326 19.9137 12.3324 20.0023" stroke="#FF9900" strokeWidth="1.5" strokeLinecap="round" strokeLinejoin="round"/>
</svg>
