<svg width="40" height="40" viewBox="0 0 40 40" fill="none" xmlns="http://www.w3.org/2000/svg">
<path fill-rule="evenodd" clip-rule="evenodd" d="M5.82743 22.441L7.82827 25.0488L8.25844 28.2934C8.49701 30.094 9.91285 31.5113 11.7132 31.7515L14.9679 32.1851L17.5573 34.1726C18.9992 35.275 21.0008 35.275 22.4427 34.1726L25.0504 32.1817L28.2985 31.7515C30.0991 31.513 31.5163 30.0971 31.7566 28.2968L32.1901 25.0421C32.1901 25.0421 33.1905 23.7249 34.1909 22.4377C35.2916 20.9965 35.2916 18.9969 34.1909 17.5556L32.1901 14.9479L31.7599 11.7032C31.5213 9.90261 30.1055 8.48539 28.3051 8.24509L25.0504 7.81158L22.4427 5.82742C21.0008 4.72501 18.9992 4.72501 17.5573 5.82742L14.9496 7.81491L11.7049 8.24509C9.90429 8.48365 8.48707 9.8995 8.24677 11.6999L7.81326 14.9546C7.81326 14.9546 6.81284 16.2718 5.81243 17.559C4.71614 19.0036 4.72228 21.0032 5.82743 22.441Z" fill="white" stroke="white" stroke-width="1.5" stroke-linecap="round" stroke-linejoin="round"/>
<path fill-rule="evenodd" clip-rule="evenodd" d="M20 19.3748C22.7626 19.3748 25.0021 21.6143 25.0021 24.3768C25.0021 25.2977 24.2556 26.0442 23.3347 26.0442H16.6653C15.7444 26.0442 14.9979 25.2977 14.9979 24.3768C14.9979 21.6143 17.2374 19.3748 20 19.3748Z" fill="#FF9900" stroke="#FF9900" stroke-width="1.5" stroke-linecap="round" stroke-linejoin="round"/>
<path fill-rule="evenodd" clip-rule="evenodd" d="M14.9979 15.6231C14.7679 15.6241 14.5821 15.8111 14.5827 16.0411C14.5834 16.2711 14.7701 16.4571 15.0001 16.4568C15.2301 16.4565 15.4164 16.27 15.4164 16.04C15.4169 15.929 15.3729 15.8225 15.2942 15.7441C15.2156 15.6658 15.1089 15.6223 14.9979 15.6231Z" fill="#FF9900"/>
<path d="M14.9979 15.6231C14.7679 15.6241 14.5821 15.8111 14.5827 16.0411C14.5834 16.2711 14.7701 16.4571 15.0001 16.4568C15.2301 16.4565 15.4164 16.27 15.4164 16.04C15.4169 15.929 15.3729 15.8225 15.2942 15.7441C15.2156 15.6658 15.1089 15.6223 14.9979 15.6231" stroke="#FF9900" stroke-width="1.5" stroke-linecap="round" stroke-linejoin="round"/>
<path fill-rule="evenodd" clip-rule="evenodd" d="M25.0021 15.6231C24.7721 15.6241 24.5863 15.8111 24.5869 16.0411C24.5875 16.2711 24.7743 16.4571 25.0043 16.4568C25.2343 16.4565 25.4206 16.27 25.4206 16.04C25.421 15.929 25.377 15.8225 25.2984 15.7441C25.2198 15.6658 25.1131 15.6223 25.0021 15.6231Z" fill="#FF9900"/>
<path d="M25.0021 15.6231C24.7721 15.6241 24.5863 15.8111 24.5869 16.0411C24.5875 16.2711 24.7743 16.4571 25.0043 16.4568C25.2343 16.4565 25.4206 16.27 25.4206 16.04C25.421 15.929 25.377 15.8225 25.2984 15.7441C25.2198 15.6658 25.1131 15.6223 25.0021 15.6231" stroke="#FF9900" stroke-width="1.5" stroke-linecap="round" stroke-linejoin="round"/>
<path fill-rule="evenodd" clip-rule="evenodd" d="M20 13.9558C19.77 13.9567 19.5842 14.1437 19.5848 14.3737C19.5855 14.6037 19.7722 14.7898 20.0022 14.7895C20.2322 14.7892 20.4185 14.6026 20.4185 14.3726C20.419 14.2616 20.375 14.1551 20.2963 14.0768C20.2177 13.9985 20.111 13.9549 20 13.9558Z" fill="#FF9900"/>
<path d="M20 13.9558C19.77 13.9567 19.5842 14.1437 19.5848 14.3737C19.5855 14.6037 19.7722 14.7898 20.0022 14.7895C20.2322 14.7892 20.4185 14.6026 20.4185 14.3726C20.419 14.2616 20.375 14.1551 20.2963 14.0768C20.2177 13.9985 20.111 13.9549 20 13.9558" stroke="#FF9900" stroke-width="1.5" stroke-linecap="round" stroke-linejoin="round"/>
</svg>
