<svg width="106" height="32" viewBox="0 0 106 32" fill="none" xmlns="http://www.w3.org/2000/svg">
<path fill-rule="evenodd" clip-rule="evenodd" d="M13.27 26.7333L13.7222 26.2811C14.3261 25.6772 15.1452 25.3379 15.9992 25.3379C16.8533 25.3379 17.6724 25.6772 18.2763 26.2811L18.7285 26.7333C19.5432 27.548 20.6482 28.0057 21.8004 28.0057H22.326C24.7253 28.0057 26.6703 26.0606 26.6703 23.6613C26.6703 22.2087 25.9444 20.8523 24.7358 20.0465C23.376 19.14 22.2433 17.9325 21.4254 16.5176L20.1983 14.3947C19.3414 12.9121 17.759 11.999 16.0466 11.999C14.3621 11.999 12.8012 12.8828 11.9345 14.3272L10.561 16.6165C9.75031 17.9676 8.64974 19.1218 7.33872 19.9958L7.26269 20.0465C6.05409 20.8523 5.32812 22.2087 5.32812 23.6613C5.32812 26.0606 7.27318 28.0057 9.67252 28.0057H10.1981C11.3503 28.0057 12.4553 27.548 13.27 26.7333Z" fill="white" stroke="white" stroke-width="2" stroke-linecap="round" stroke-linejoin="round"/>
<circle cx="5.99563" cy="12.6654" r="2.00083" fill="white" stroke="white" stroke-width="2" stroke-linecap="round" stroke-linejoin="round"/>
<circle cx="26.0034" cy="12.6654" r="2.00083" fill="white" stroke="white" stroke-width="2" stroke-linecap="round" stroke-linejoin="round"/>
<circle cx="11.7118" cy="5.99595" r="2.00083" fill="white" stroke="white" stroke-width="2" stroke-linecap="round" stroke-linejoin="round"/>
<circle cx="20.2873" cy="5.99595" r="2.00083" fill="white" stroke="white" stroke-width="2" stroke-linecap="round" stroke-linejoin="round"/>
<path d="M39.1378 23V9.90909H44.3026C45.2955 9.90909 46.1413 10.0987 46.8402 10.478C47.5391 10.853 48.0717 11.375 48.4382 12.044C48.8089 12.7088 48.9943 13.4759 48.9943 14.3452C48.9943 15.2145 48.8068 15.9815 48.4318 16.6463C48.0568 17.3111 47.5135 17.8288 46.8018 18.1996C46.0945 18.5703 45.2379 18.7557 44.2322 18.7557H40.9403V16.5376H43.7848C44.3175 16.5376 44.7564 16.446 45.1016 16.2628C45.451 16.0753 45.7109 15.8175 45.8814 15.4893C46.0561 15.157 46.1435 14.7756 46.1435 14.3452C46.1435 13.9105 46.0561 13.5312 45.8814 13.2074C45.7109 12.8793 45.451 12.6257 45.1016 12.4467C44.7521 12.2635 44.3089 12.1719 43.772 12.1719H41.9055V23H39.1378ZM55.0572 23.1918C54.0472 23.1918 53.1779 22.9872 52.4492 22.5781C51.7248 22.1648 51.1665 21.581 50.7745 20.8267C50.3825 20.0682 50.1864 19.1712 50.1864 18.1357C50.1864 17.1257 50.3825 16.2393 50.7745 15.4766C51.1665 14.7138 51.7184 14.1193 52.43 13.6932C53.146 13.267 53.9854 13.054 54.9485 13.054C55.5962 13.054 56.1992 13.1584 56.7575 13.3672C57.32 13.5717 57.81 13.8807 58.2276 14.294C58.6495 14.7074 58.9776 15.2273 59.212 15.8537C59.4464 16.4759 59.5636 17.2045 59.5636 18.0398V18.7876H51.2731V17.1001H57.0004C57.0004 16.7081 56.9151 16.3608 56.7447 16.0582C56.5742 15.7557 56.3377 15.5192 56.0352 15.3487C55.7369 15.174 55.3896 15.0866 54.9933 15.0866C54.5799 15.0866 54.2134 15.1825 53.8938 15.3743C53.5785 15.5618 53.3313 15.8153 53.1523 16.1349C52.9734 16.4503 52.8817 16.8018 52.8775 17.1896V18.794C52.8775 19.2798 52.967 19.6996 53.146 20.0533C53.3292 20.407 53.587 20.6797 53.9194 20.8714C54.2518 21.0632 54.646 21.1591 55.1019 21.1591C55.4045 21.1591 55.6815 21.1165 55.9329 21.0312C56.1843 20.946 56.3995 20.8182 56.5785 20.6477C56.7575 20.4773 56.8938 20.2685 56.9876 20.0213L59.506 20.1875C59.3782 20.7926 59.1161 21.321 58.7198 21.7727C58.3278 22.2202 57.8207 22.5696 57.1985 22.821C56.5806 23.0682 55.8668 23.1918 55.0572 23.1918ZM66.5629 13.1818V15.2273H60.6502V13.1818H66.5629ZM61.9925 10.8295H64.7156V19.983C64.7156 20.2344 64.7539 20.4304 64.8306 20.571C64.9073 20.7074 65.0138 20.8033 65.1502 20.8587C65.2908 20.9141 65.4528 20.9418 65.636 20.9418C65.7638 20.9418 65.8917 20.9311 66.0195 20.9098C66.1474 20.8842 66.2454 20.8651 66.3136 20.8523L66.7418 22.8786C66.6055 22.9212 66.4137 22.9702 66.1665 23.0256C65.9194 23.0852 65.619 23.1214 65.2653 23.1342C64.609 23.1598 64.0337 23.0724 63.5394 22.8722C63.0494 22.6719 62.668 22.3608 62.3952 21.9389C62.1225 21.517 61.9883 20.9844 61.9925 20.3409V10.8295ZM72.6673 23.1918C71.6616 23.1918 70.7965 22.9787 70.0721 22.5526C69.3519 22.1222 68.7979 21.5256 68.4102 20.7628C68.0266 20 67.8349 19.1222 67.8349 18.1293C67.8349 17.1236 68.0288 16.2415 68.4165 15.483C68.8086 14.7202 69.3647 14.1257 70.0849 13.6996C70.805 13.2692 71.6616 13.054 72.6545 13.054C73.511 13.054 74.261 13.2095 74.9045 13.5206C75.5479 13.8317 76.0572 14.2685 76.4322 14.831C76.8072 15.3935 77.0138 16.054 77.0522 16.8125H74.4826C74.4102 16.3224 74.2184 15.9283 73.9073 15.63C73.6005 15.3274 73.1978 15.1761 72.6992 15.1761C72.2773 15.1761 71.9087 15.2912 71.5934 15.5213C71.2823 15.7472 71.0394 16.0774 70.8647 16.5121C70.69 16.9467 70.6026 17.473 70.6026 18.0909C70.6026 18.7173 70.6879 19.25 70.8583 19.6889C71.033 20.1278 71.2781 20.4624 71.5934 20.6925C71.9087 20.9226 72.2773 21.0376 72.6992 21.0376C73.0103 21.0376 73.2894 20.9737 73.5366 20.8459C73.788 20.718 73.9947 20.5327 74.1566 20.2898C74.3228 20.0426 74.4315 19.7464 74.4826 19.4013H77.0522C77.0096 20.1513 76.805 20.8118 76.4386 21.3828C76.0763 21.9496 75.5756 22.3928 74.9364 22.7124C74.2972 23.032 73.5408 23.1918 72.6673 23.1918ZM81.5953 23.1854C80.9689 23.1854 80.4107 23.0767 79.9206 22.8594C79.4306 22.6378 79.0428 22.3118 78.7573 21.8814C78.476 21.4467 78.3354 20.9055 78.3354 20.2578C78.3354 19.7124 78.4355 19.2543 78.6358 18.8835C78.8361 18.5128 79.1088 18.2145 79.454 17.9886C79.7992 17.7628 80.1912 17.5923 80.6301 17.4773C81.0733 17.3622 81.5378 17.2812 82.0236 17.2344C82.5946 17.1747 83.0549 17.1193 83.4043 17.0682C83.7537 17.0128 84.0073 16.9318 84.165 16.8253C84.3226 16.7187 84.4015 16.5611 84.4015 16.3523V16.3139C84.4015 15.9091 84.2736 15.5959 84.0179 15.3743C83.7665 15.1527 83.4086 15.0419 82.9441 15.0419C82.454 15.0419 82.0641 15.1506 81.7743 15.3679C81.4846 15.581 81.2928 15.8494 81.199 16.1733L78.6806 15.9688C78.8084 15.3722 79.0598 14.8565 79.4348 14.4219C79.8098 13.983 80.2935 13.6463 80.8858 13.4119C81.4824 13.1733 82.1728 13.054 82.9569 13.054C83.5023 13.054 84.0243 13.1179 84.5229 13.2457C85.0257 13.3736 85.4711 13.5717 85.8588 13.8402C86.2509 14.1087 86.5598 14.4538 86.7857 14.8757C87.0115 15.2933 87.1245 15.794 87.1245 16.3778V23H84.5421V21.6385H84.4654C84.3077 21.9453 84.0968 22.2159 83.8326 22.4503C83.5684 22.6804 83.2509 22.8615 82.8801 22.9936C82.5094 23.1214 82.0811 23.1854 81.5953 23.1854ZM82.3752 21.3061C82.7757 21.3061 83.1294 21.2273 83.4363 21.0696C83.7431 20.9077 83.9838 20.6903 84.1586 20.4176C84.3333 20.1449 84.4206 19.8359 84.4206 19.4908V18.4489C84.3354 18.5043 84.2182 18.5554 84.0691 18.6023C83.9242 18.6449 83.7601 18.6854 83.5769 18.7237C83.3936 18.7578 83.2104 18.7898 83.0272 18.8196C82.8439 18.8452 82.6777 18.8686 82.5286 18.8899C82.209 18.9368 81.9299 19.0114 81.6912 19.1136C81.4526 19.2159 81.2672 19.3544 81.1351 19.5291C81.003 19.6996 80.937 19.9126 80.937 20.1683C80.937 20.5391 81.0712 20.8224 81.3397 21.0185C81.6124 21.2102 81.9576 21.3061 82.3752 21.3061ZM89.237 23V13.1818H91.877V14.8949H91.9792C92.1582 14.2855 92.4586 13.8253 92.8805 13.5142C93.3024 13.1989 93.7882 13.0412 94.3379 13.0412C94.4743 13.0412 94.6213 13.0497 94.7789 13.0668C94.9366 13.0838 95.0751 13.1072 95.1944 13.1371V15.5533C95.0666 15.5149 94.8897 15.4808 94.6639 15.451C94.438 15.4212 94.2314 15.4062 94.0439 15.4062C93.6433 15.4062 93.2853 15.4936 92.97 15.6683C92.6589 15.8388 92.4118 16.0774 92.2285 16.3842C92.0495 16.6911 91.96 17.0447 91.96 17.4453V23H89.237ZM100.62 23.1918C99.6097 23.1918 98.7404 22.9872 98.0117 22.5781C97.2873 22.1648 96.729 21.581 96.337 20.8267C95.945 20.0682 95.7489 19.1712 95.7489 18.1357C95.7489 17.1257 95.945 16.2393 96.337 15.4766C96.729 14.7138 97.2809 14.1193 97.9925 13.6932C98.7085 13.267 99.5479 13.054 100.511 13.054C101.159 13.054 101.762 13.1584 102.32 13.3672C102.882 13.5717 103.373 13.8807 103.79 14.294C104.212 14.7074 104.54 15.2273 104.775 15.8537C105.009 16.4759 105.126 17.2045 105.126 18.0398V18.7876H96.8356V17.1001H102.563C102.563 16.7081 102.478 16.3608 102.307 16.0582C102.137 15.7557 101.9 15.5192 101.598 15.3487C101.299 15.174 100.952 15.0866 100.556 15.0866C100.142 15.0866 99.7759 15.1825 99.4563 15.3743C99.141 15.5618 98.8938 15.8153 98.7148 16.1349C98.5359 16.4503 98.4442 16.8018 98.44 17.1896V18.794C98.44 19.2798 98.5295 19.6996 98.7085 20.0533C98.8917 20.407 99.1495 20.6797 99.4819 20.8714C99.8143 21.0632 100.208 21.1591 100.664 21.1591C100.967 21.1591 101.244 21.1165 101.495 21.0312C101.747 20.946 101.962 20.8182 102.141 20.6477C102.32 20.4773 102.456 20.2685 102.55 20.0213L105.069 20.1875C104.941 20.7926 104.679 21.321 104.282 21.7727C103.89 22.2202 103.383 22.5696 102.761 22.821C102.143 23.0682 101.429 23.1918 100.62 23.1918Z" fill="white"/>
</svg>
