<svg width="109" height="32" viewBox="0 0 109 32" fill="none" xmlns="http://www.w3.org/2000/svg">
<path fill-rule="evenodd" clip-rule="evenodd" d="M13.27 26.7333L13.7222 26.2811C14.3261 25.6772 15.1452 25.3379 15.9992 25.3379C16.8533 25.3379 17.6724 25.6772 18.2763 26.2811L18.7285 26.7333C19.5432 27.548 20.6482 28.0057 21.8004 28.0057H22.326C24.7253 28.0057 26.6703 26.0606 26.6703 23.6613C26.6703 22.2087 25.9444 20.8523 24.7358 20.0465C23.376 19.14 22.2433 17.9325 21.4254 16.5176L20.1983 14.3947C19.3414 12.9121 17.759 11.999 16.0466 11.999C14.3621 11.999 12.8012 12.8828 11.9345 14.3272L10.561 16.6165C9.75031 17.9676 8.64974 19.1218 7.33872 19.9958L7.26269 20.0465C6.05409 20.8523 5.32812 22.2087 5.32812 23.6613C5.32812 26.0606 7.27318 28.0057 9.67252 28.0057H10.1981C11.3503 28.0057 12.4553 27.548 13.27 26.7333Z" fill="#1B1B1B" stroke="#1B1B1B" stroke-width="2" stroke-linecap="round" stroke-linejoin="round"/>
<circle cx="5.99563" cy="12.6652" r="2.00083" fill="#1B1B1B" stroke="#1B1B1B" stroke-width="2" stroke-linecap="round" stroke-linejoin="round"/>
<circle cx="26.0034" cy="12.6652" r="2.00083" fill="#1B1B1B" stroke="#1B1B1B" stroke-width="2" stroke-linecap="round" stroke-linejoin="round"/>
<circle cx="11.7118" cy="5.99595" r="2.00083" fill="#1B1B1B" stroke="#1B1B1B" stroke-width="2" stroke-linecap="round" stroke-linejoin="round"/>
<circle cx="20.2873" cy="5.99595" r="2.00083" fill="#1B1B1B" stroke="#1B1B1B" stroke-width="2" stroke-linecap="round" stroke-linejoin="round"/>
<path d="M39.1378 23V9.90909H44.3026C45.2955 9.90909 46.1413 10.0987 46.8402 10.478C47.5391 10.853 48.0717 11.375 48.4382 12.044C48.8089 12.7088 48.9943 13.4759 48.9943 14.3452C48.9943 15.2145 48.8068 15.9815 48.4318 16.6463C48.0568 17.3111 47.5135 17.8288 46.8018 18.1996C46.0945 18.5703 45.2379 18.7557 44.2322 18.7557H40.9403V16.5376H43.7848C44.3175 16.5376 44.7564 16.446 45.1016 16.2628C45.451 16.0753 45.7109 15.8175 45.8814 15.4893C46.0561 15.157 46.1435 14.7756 46.1435 14.3452C46.1435 13.9105 46.0561 13.5312 45.8814 13.2074C45.7109 12.8793 45.451 12.6257 45.1016 12.4467C44.7521 12.2635 44.3089 12.1719 43.772 12.1719H41.9055V23H39.1378ZM55.0572 23.1918C54.0472 23.1918 53.1779 22.9872 52.4492 22.5781C51.7248 22.1648 51.1665 21.581 50.7745 20.8267C50.3825 20.0682 50.1864 19.1712 50.1864 18.1357C50.1864 17.1257 50.3825 16.2393 50.7745 15.4766C51.1665 14.7138 51.7184 14.1193 52.43 13.6932C53.146 13.267 53.9854 13.054 54.9485 13.054C55.5962 13.054 56.1992 13.1584 56.7575 13.3672C57.32 13.5717 57.81 13.8807 58.2276 14.294C58.6495 14.7074 58.9776 15.2273 59.212 15.8537C59.4464 16.4759 59.5636 17.2045 59.5636 18.0398V18.7876H51.2731V17.1001H57.0004C57.0004 16.7081 56.9151 16.3608 56.7447 16.0582C56.5742 15.7557 56.3377 15.5192 56.0352 15.3487C55.7369 15.174 55.3896 15.0866 54.9933 15.0866C54.5799 15.0866 54.2134 15.1825 53.8938 15.3743C53.5785 15.5618 53.3313 15.8153 53.1523 16.1349C52.9734 16.4503 52.8817 16.8018 52.8775 17.1896V18.794C52.8775 19.2798 52.967 19.6996 53.146 20.0533C53.3292 20.407 53.587 20.6797 53.9194 20.8714C54.2518 21.0632 54.646 21.1591 55.1019 21.1591C55.4045 21.1591 55.6815 21.1165 55.9329 21.0312C56.1843 20.946 56.3995 20.8182 56.5785 20.6477C56.7575 20.4773 56.8938 20.2685 56.9876 20.0213L59.506 20.1875C59.3782 20.7926 59.1161 21.321 58.7198 21.7727C58.3278 22.2202 57.8207 22.5696 57.1985 22.821C56.5806 23.0682 55.8668 23.1918 55.0572 23.1918ZM66.5629 13.1818V15.2273H60.6502V13.1818H66.5629ZM61.9925 10.8295H64.7156V19.983C64.7156 20.2344 64.7539 20.4304 64.8306 20.571C64.9073 20.7074 65.0138 20.8033 65.1502 20.8587C65.2908 20.9141 65.4528 20.9418 65.636 20.9418C65.7638 20.9418 65.8917 20.9311 66.0195 20.9098C66.1474 20.8842 66.2454 20.8651 66.3136 20.8523L66.7418 22.8786C66.6055 22.9212 66.4137 22.9702 66.1665 23.0256C65.9194 23.0852 65.619 23.1214 65.2653 23.1342C64.609 23.1598 64.0337 23.0724 63.5394 22.8722C63.0494 22.6719 62.668 22.3608 62.3952 21.9389C62.1225 21.517 61.9883 20.9844 61.9925 20.3409V10.8295ZM79.9382 14.4922H77.1385C77.0874 14.13 76.983 13.8082 76.8253 13.527C76.6676 13.2415 76.4652 12.9986 76.218 12.7983C75.9709 12.598 75.6854 12.4446 75.3615 12.3381C75.0419 12.2315 74.6946 12.1783 74.3196 12.1783C73.642 12.1783 73.0518 12.3466 72.549 12.6832C72.0462 13.0156 71.6563 13.5014 71.3793 14.1406C71.1023 14.7756 70.9638 15.5469 70.9638 16.4545C70.9638 17.3878 71.1023 18.1719 71.3793 18.8068C71.6605 19.4418 72.0526 19.9212 72.5554 20.245C73.0582 20.5689 73.6399 20.7308 74.3004 20.7308C74.6712 20.7308 75.0142 20.6818 75.3295 20.5838C75.6491 20.4858 75.9325 20.343 76.1797 20.1555C76.4268 19.9638 76.6314 19.7315 76.7933 19.4588C76.9595 19.1861 77.0746 18.875 77.1385 18.5256L79.9382 18.5384C79.8658 19.1392 79.6847 19.7188 79.3949 20.277C79.1094 20.831 78.7237 21.3274 78.2379 21.7663C77.7564 22.201 77.1811 22.5462 76.5121 22.8018C75.8473 23.0533 75.0952 23.179 74.2557 23.179C73.0881 23.179 72.044 22.9148 71.1236 22.3864C70.2074 21.858 69.483 21.093 68.9503 20.0916C68.4219 19.0902 68.1577 17.8778 68.1577 16.4545C68.1577 15.027 68.4261 13.8125 68.9631 12.8111C69.5 11.8097 70.2287 11.0469 71.1491 10.5227C72.0696 9.99432 73.1051 9.73011 74.2557 9.73011C75.0142 9.73011 75.7173 9.83665 76.3651 10.0497C77.017 10.2628 77.5945 10.5739 78.0973 10.983C78.6001 11.3878 79.0092 11.8842 79.3246 12.4723C79.6442 13.0604 79.8487 13.7337 79.9382 14.4922ZM84.6715 23.1854C84.0451 23.1854 83.4869 23.0767 82.9968 22.8594C82.5067 22.6378 82.119 22.3118 81.8335 21.8814C81.5522 21.4467 81.4116 20.9055 81.4116 20.2578C81.4116 19.7124 81.5117 19.2543 81.712 18.8835C81.9123 18.5128 82.185 18.2145 82.5302 17.9886C82.8754 17.7628 83.2674 17.5923 83.7063 17.4773C84.1495 17.3622 84.614 17.2812 85.0998 17.2344C85.6708 17.1747 86.131 17.1193 86.4805 17.0682C86.8299 17.0128 87.0835 16.9318 87.2411 16.8253C87.3988 16.7187 87.4776 16.5611 87.4776 16.3523V16.3139C87.4776 15.9091 87.3498 15.5959 87.0941 15.3743C86.8427 15.1527 86.4847 15.0419 86.0202 15.0419C85.5302 15.0419 85.1403 15.1506 84.8505 15.3679C84.5607 15.581 84.369 15.8494 84.2752 16.1733L81.7567 15.9688C81.8846 15.3722 82.136 14.8565 82.511 14.4219C82.886 13.983 83.3697 13.6463 83.962 13.4119C84.5586 13.1733 85.2489 13.054 86.033 13.054C86.5785 13.054 87.1005 13.1179 87.5991 13.2457C88.1019 13.3736 88.5472 13.5717 88.935 13.8402C89.3271 14.1087 89.636 14.4538 89.8619 14.8757C90.0877 15.2933 90.2006 15.794 90.2006 16.3778V23H87.6183V21.6385H87.5415C87.3839 21.9453 87.1729 22.2159 86.9087 22.4503C86.6445 22.6804 86.3271 22.8615 85.9563 22.9936C85.5856 23.1214 85.1573 23.1854 84.6715 23.1854ZM85.4513 21.3061C85.8519 21.3061 86.2056 21.2273 86.5124 21.0696C86.8192 20.9077 87.06 20.6903 87.2347 20.4176C87.4094 20.1449 87.4968 19.8359 87.4968 19.4908V18.4489C87.4116 18.5043 87.2944 18.5554 87.1452 18.6023C87.0004 18.6449 86.8363 18.6854 86.6531 18.7237C86.4698 18.7578 86.2866 18.7898 86.1033 18.8196C85.9201 18.8452 85.7539 18.8686 85.6048 18.8899C85.2852 18.9368 85.006 19.0114 84.7674 19.1136C84.5288 19.2159 84.3434 19.3544 84.2113 19.5291C84.0792 19.6996 84.0131 19.9126 84.0131 20.1683C84.0131 20.5391 84.1474 20.8224 84.4158 21.0185C84.6886 21.2102 85.0337 21.3061 85.4513 21.3061ZM92.3132 23V13.1818H94.9531V14.8949H95.0554C95.2344 14.2855 95.5348 13.8253 95.9567 13.5142C96.3786 13.1989 96.8643 13.0412 97.4141 13.0412C97.5504 13.0412 97.6974 13.0497 97.8551 13.0668C98.0128 13.0838 98.1513 13.1072 98.2706 13.1371V15.5533C98.1428 15.5149 97.9659 15.4808 97.7401 15.451C97.5142 15.4212 97.3075 15.4062 97.12 15.4062C96.7195 15.4062 96.3615 15.4936 96.0462 15.6683C95.7351 15.8388 95.4879 16.0774 95.3047 16.3842C95.1257 16.6911 95.0362 17.0447 95.0362 17.4453V23H92.3132ZM103.696 23.1918C102.686 23.1918 101.817 22.9872 101.088 22.5781C100.363 22.1648 99.8052 21.581 99.4132 20.8267C99.0211 20.0682 98.8251 19.1712 98.8251 18.1357C98.8251 17.1257 99.0211 16.2393 99.4132 15.4766C99.8052 14.7138 100.357 14.1193 101.069 13.6932C101.785 13.267 102.624 13.054 103.587 13.054C104.235 13.054 104.838 13.1584 105.396 13.3672C105.959 13.5717 106.449 13.8807 106.866 14.294C107.288 14.7074 107.616 15.2273 107.851 15.8537C108.085 16.4759 108.202 17.2045 108.202 18.0398V18.7876H99.9118V17.1001H105.639C105.639 16.7081 105.554 16.3608 105.383 16.0582C105.213 15.7557 104.976 15.5192 104.674 15.3487C104.376 15.174 104.028 15.0866 103.632 15.0866C103.219 15.0866 102.852 15.1825 102.532 15.3743C102.217 15.5618 101.97 15.8153 101.791 16.1349C101.612 16.4503 101.52 16.8018 101.516 17.1896V18.794C101.516 19.2798 101.606 19.6996 101.785 20.0533C101.968 20.407 102.226 20.6797 102.558 20.8714C102.89 21.0632 103.285 21.1591 103.741 21.1591C104.043 21.1591 104.32 21.1165 104.572 21.0312C104.823 20.946 105.038 20.8182 105.217 20.6477C105.396 20.4773 105.532 20.2685 105.626 20.0213L108.145 20.1875C108.017 20.7926 107.755 21.321 107.358 21.7727C106.966 22.2202 106.459 22.5696 105.837 22.821C105.219 23.0682 104.506 23.1918 103.696 23.1918Z" fill="#1B1B1B"/>
</svg>
