<svg width="32" height="32" viewBox="0 0 32 32" fill="none" xmlns="http://www.w3.org/2000/svg">
<path fill-rule="evenodd" clip-rule="evenodd" d="M15.2893 14.833V14.833C17.4993 14.833 19.2909 16.6246 19.2909 18.8347V18.8347C19.2909 19.5714 18.6937 20.1686 17.957 20.1686H12.6215C11.8848 20.1686 11.2876 19.5714 11.2876 18.8347V18.8347C11.2876 16.6246 13.0792 14.833 15.2893 14.833V14.833Z" stroke="#FF9900" stroke-width="1.5" stroke-linecap="round" stroke-linejoin="round"/>
<path d="M22.3322 8.24616C26.2218 12.1359 26.2218 18.4422 22.3321 22.3319C18.4424 26.2216 12.1361 26.2216 8.24638 22.3319C4.3567 18.4422 4.35667 12.1359 8.24632 8.24616C10.1142 6.37824 12.6476 5.32886 15.2892 5.32886C17.9309 5.32886 20.4643 6.37824 22.3322 8.24616" stroke="#FF9900" stroke-width="1.5" stroke-linecap="round" stroke-linejoin="round"/>
<path d="M26.6712 26.6712L22.332 22.332" stroke="#FF9900" stroke-width="1.5" stroke-linecap="round" stroke-linejoin="round"/>
<path d="M11.2862 11.8318C11.1022 11.8325 10.9536 11.9821 10.9541 12.1661C10.9546 12.3501 11.104 12.499 11.288 12.4987C11.472 12.4985 11.621 12.3492 11.621 12.1652C11.6214 12.0765 11.5862 11.9912 11.5233 11.9286C11.4604 11.8659 11.375 11.8311 11.2862 11.8318" stroke="#FF9900" stroke-width="1.5" stroke-linecap="round" stroke-linejoin="round"/>
<path d="M19.2894 11.8318C19.1054 11.8325 18.9568 11.9821 18.9573 12.1661C18.9577 12.3501 19.1072 12.499 19.2912 12.4987C19.4752 12.4985 19.6242 12.3492 19.6242 12.1652C19.6246 12.0765 19.5894 11.9912 19.5264 11.9286C19.4635 11.8659 19.3782 11.8311 19.2894 11.8318" stroke="#FF9900" stroke-width="1.5" stroke-linecap="round" stroke-linejoin="round"/>
<path d="M15.2879 10.4978C15.1039 10.4985 14.9553 10.6481 14.9558 10.8321C14.9563 11.0161 15.1057 11.165 15.2897 11.1647C15.4737 11.1645 15.6227 11.0153 15.6227 10.8313C15.6231 10.7425 15.5879 10.6572 15.525 10.5946C15.4621 10.5319 15.3767 10.4971 15.2879 10.4978" stroke="#FF9900" stroke-width="1.5" stroke-linecap="round" stroke-linejoin="round"/>
</svg>
